<svg style="position: absolute; width: 0; height: 0;" version="1.1" xmlns="http://www.w3.org/2000/svg" xmlns:xlink="http://www.w3.org/1999/xlink">
  <defs>
    <symbol id="icon_Files">
      <path d="M17.5 0H8.5L7 1.5V6H2.5L1 7.5V22.5699L2.5 24H14.5699L16 22.5699V18H20.7L22 16.5699V4.5L17.5 0ZM17.5 2.12L19.88 4.5H17.5V2.12ZM14.5 22.5H2.5V7.5H7V16.5699L8.5 18H14.5V22.5ZM20.5 16.5H8.5V1.5H16V6H20.5V16.5Z" />
    </symbol>
    <symbol id="icon_Search">
      <path d="M15.25 1.02546e-06C13.6605 -0.000791296 12.1046 0.457574 10.7694 1.32007C9.43422 2.18256 8.37657 3.4124 7.72375 4.8617C7.07094 6.31099 6.85077 7.91801 7.0896 9.4895C7.32843 11.061 8.01604 12.5301 9.06995 13.72L1 22.88L2.12 23.88L10.17 14.76C11.2055 15.5693 12.4192 16.1196 13.7103 16.365C15.0014 16.6104 16.3325 16.5437 17.5927 16.1707C18.8528 15.7976 20.0055 15.1288 20.955 14.2201C21.9044 13.3114 22.623 12.1891 23.0509 10.9465C23.4789 9.70396 23.6038 8.37703 23.4153 7.07642C23.2267 5.77581 22.7302 4.53915 21.967 3.46924C21.2039 2.39933 20.1962 1.52711 19.0278 0.925416C17.8595 0.323719 16.5642 0.00991516 15.25 0.0100108V1.02546e-06ZM15.25 15C13.915 15 12.6099 14.6041 11.4999 13.8624C10.3898 13.1207 9.52469 12.0665 9.01379 10.8331C8.5029 9.59973 8.36919 8.24248 8.62964 6.93311C8.89009 5.62373 9.53305 4.42106 10.4771 3.47705C11.4211 2.53305 12.6237 1.89009 13.9331 1.62964C15.2425 1.36919 16.5997 1.5029 17.8331 2.01379C19.0665 2.52469 20.1207 3.38985 20.8624 4.49988C21.6041 5.60991 22 6.91498 22 8.25C22 10.0402 21.2888 11.7571 20.0229 13.023C18.7571 14.2888 17.0402 15 15.25 15Z" />
    </symbol>
    <symbol id="icon_Github">
      <path fill-rule="evenodd" clip-rule="evenodd" d="M7.97553 0C3.57186 0 0 3.57186 0 7.97553C0 11.4985 2.29969 14.4832 5.43119 15.5596C5.82263 15.6086 5.96942 15.3639 5.96942 15.1682C5.96942 14.9725 5.96942 14.4832 5.96942 13.7982C3.76758 14.2875 3.27829 12.7217 3.27829 12.7217C2.93578 11.792 2.39755 11.5474 2.39755 11.5474C1.66361 11.0581 2.44648 11.0581 2.44648 11.0581C3.22936 11.107 3.66972 11.8899 3.66972 11.8899C4.40367 13.1131 5.52905 12.7706 5.96942 12.5749C6.01835 12.0367 6.263 11.6942 6.45872 11.4985C4.69725 11.3028 2.83792 10.6177 2.83792 7.53517C2.83792 6.65443 3.1315 5.96942 3.66972 5.38226C3.62079 5.23547 3.32722 4.40367 3.76758 3.32722C3.76758 3.32722 4.4526 3.1315 5.96942 4.15902C6.6055 3.9633 7.29052 3.91437 7.97553 3.91437C8.66055 3.91437 9.34557 4.01223 9.98165 4.15902C11.4985 3.1315 12.1835 3.32722 12.1835 3.32722C12.6239 4.40367 12.3303 5.23547 12.2813 5.43119C12.7706 5.96942 13.1131 6.70336 13.1131 7.5841C13.1131 10.6667 11.2538 11.3028 9.49235 11.4985C9.78593 11.7431 10.0306 12.2324 10.0306 12.9664C10.0306 14.0428 10.0306 14.8746 10.0306 15.1682C10.0306 15.3639 10.1774 15.6086 10.5688 15.5596C13.7492 14.4832 16 11.4985 16 7.97553C15.9511 3.57186 12.3792 0 7.97553 0Z"/>
    </symbol>
    <symbol id="icon_Nuget">
      <path d="M23.563 28.844c-7.104 0-7.104-10.651 0-10.651 7.099 0 7.099 10.651 0 10.651zM12.932 16.636c-4.437 0-4.437-6.663 0-6.663 4.443 0 4.443 6.663 0 6.663zM23.797 6.24h-8.891c-4.532 0.005-8.204 3.677-8.209 8.208v8.891c0 4.531 3.677 8.203 8.209 8.203h8.891c2.172 0 4.26-0.864 5.801-2.401 1.537-1.541 2.401-3.624 2.401-5.801v-8.891c0-4.531-3.672-8.208-8.203-8.208zM5.328 3.12c0 3.552-5.328 3.552-5.328 0s5.328-3.552 5.328 0z" />
    </symbol>
    <symbol id="icon_Cloud">
      <path fill-rule="evenodd" clip-rule="evenodd" d="M11.9565 6H12.0064C12.8004 6 13.5618 6.31607 14.1232 6.87868C14.6846 7.44129 15 8.20435 15 9C15 9.79565 14.6846 10.5587 14.1232 11.1213C13.5618 11.6839 12.8004 12 12.0064 12V11.9871L12 12L5.02148 12H4.52255C4.02745 12.0043 3.5371 11.903 3.08403 11.7029C2.63096 11.5028 2.22553 11.2084 1.89461 10.8394C1.5637 10.4703 1.31488 10.0349 1.16465 9.56211C1.01442 9.08932 0.966217 8.58992 1.02324 8.09704C1.08026 7.60416 1.24121 7.12906 1.4954 6.70326C1.74959 6.27745 2.09121 5.91068 2.49762 5.62727C2.90402 5.34385 3.36591 5.15027 3.85264 5.05937C4.33938 4.96847 4.83984 4.98232 5.32083 5.1C5.6241 4.40501 6.14511 3.82799 6.80496 3.45635C7.4648 3.08472 8.22753 2.9387 8.9776 3.04044C9.72768 3.14217 10.4242 3.4861 10.9618 4.02014C11.4993 4.55418 11.8485 5.24923 11.9565 6ZM5 11H12.0101C12.5381 10.999 13.0442 10.7884 13.4176 10.4142C13.7919 10.0391 14.0021 9.53044 14.0021 9C14.0021 8.46957 13.7919 7.96086 13.4176 7.58579C13.0434 7.21072 12.5357 7 12.0064 7H11.0924L10.9687 6.143C10.8938 5.60541 10.6456 5.10711 10.2618 4.72407C9.87801 4.34103 9.37977 4.09427 8.84303 4.02143C8.30629 3.94859 7.76051 4.05365 7.2889 4.3206C6.81729 4.58754 6.44573 5.00173 6.23087 5.5L5.89759 6.262L5.08933 6.073C4.90382 6.02699 4.71364 6.0025 4.52255 6C3.86093 6 3.22641 6.2634 2.75858 6.73224C2.29075 7.20108 2.02792 7.83696 2.02792 8.5C2.02792 9.16304 2.29075 9.79893 2.75858 10.2678C3.22641 10.7366 3.86093 11 4.52255 11L5 11Z" />
    </symbol>
    <symbol id="icon_Color">
      <path d="M8 1C6.61553 1 5.26216 1.41054 4.11101 2.17971C2.95987 2.94888 2.06266 4.04213 1.53285 5.32122C1.00303 6.6003 0.86441 8.00777 1.13451 9.36563C1.4046 10.7235 2.07129 11.9708 3.05026 12.9497C4.02922 13.9287 5.2765 14.5954 6.63437 14.8655C7.99224 15.1356 9.3997 14.997 10.6788 14.4672C11.9579 13.9373 13.0511 13.0401 13.8203 11.889C14.5895 10.7378 15 9.38447 15 8C15 6.14348 14.2625 4.36301 12.9497 3.05025C11.637 1.7375 9.85652 1 8 1V1ZM8 14V2C9.5913 2 11.1174 2.63214 12.2426 3.75736C13.3679 4.88258 14 6.4087 14 8C14 9.5913 13.3679 11.1174 12.2426 12.2426C11.1174 13.3679 9.5913 14 8 14V14Z" />
    </symbol>
    <symbol id="icon_Gear">
      <path fill-rule="evenodd" clip-rule="evenodd" d="M19.85 8.75L24 9.57996V14.42L19.85 15.25L22.2 18.77L18.77 22.2L15.25 19.85L14.42 24H9.57996L8.75 19.85L5.22998 22.2L1.80005 18.77L4.15002 15.25L0 14.42V9.57996L4.15002 8.75L1.80005 5.22998L5.22998 1.80005L8.75 4.15002L9.57996 0H14.42L15.25 4.15002L18.77 1.80005L22.2 5.22998L19.85 8.75ZM18.28 13.8199L22.28 13.01V11.01L18.28 10.2L17.74 8.90002L20.03 5.46997L18.6 4.04004L15.17 6.32996L13.87 5.79004L13.0601 1.79004H11.0601L10.25 5.79004L8.94995 6.32996L5.52002 4.04004L4.08997 5.46997L6.38 8.90002L5.83997 10.2L1.83997 11.01V13.01L5.83997 13.8199L6.38 15.12L4.08997 18.55L5.52002 19.98L8.94995 17.6899L10.25 18.23L11.0601 22.23H13.0601L13.87 18.23L15.17 17.6899L18.6 19.98L20.03 18.55L17.74 15.12L18.28 13.8199ZM10.0943 9.14807C10.6584 8.77118 11.3216 8.56995 12 8.56995C12.9089 8.57258 13.7798 8.93484 14.4225 9.57751C15.0652 10.2202 15.4274 11.0911 15.43 12C15.43 12.6784 15.2288 13.3416 14.8519 13.9056C14.475 14.4697 13.9394 14.9093 13.3126 15.1689C12.6859 15.4286 11.9962 15.4965 11.3308 15.3641C10.6654 15.2318 10.0543 14.9051 9.57457 14.4254C9.09488 13.9457 8.7682 13.3345 8.63585 12.6692C8.50351 12.0038 8.57143 11.3141 8.83104 10.6874C9.09065 10.0606 9.53029 9.52496 10.0943 9.14807ZM11.0499 13.4218C11.3311 13.6097 11.6618 13.71 12 13.71C12.2249 13.7113 12.4479 13.668 12.656 13.5825C12.8641 13.4971 13.0531 13.3712 13.2121 13.2122C13.3712 13.0531 13.497 12.8641 13.5825 12.656C13.668 12.4479 13.7113 12.2249 13.7099 12C13.7099 11.6618 13.6096 11.3311 13.4217 11.0499C13.2338 10.7687 12.9669 10.5496 12.6544 10.4202C12.3419 10.2907 11.9981 10.2569 11.6664 10.3229C11.3347 10.3889 11.03 10.5517 10.7909 10.7909C10.5517 11.03 10.3888 11.3347 10.3229 11.6664C10.2569 11.9981 10.2907 12.342 10.4202 12.6544C10.5496 12.9669 10.7687 13.2339 11.0499 13.4218Z" />
    </symbol>
    <symbol id="icon_Paintcan">
      <path d="M14.5406 11.8111L13.4006 8.69097V8.63103L8.4906 3.721V2.48101C8.48888 2.28265 8.45164 2.08626 8.38062 1.90105C8.30282 1.71896 8.18926 1.55434 8.04669 1.41692C7.90412 1.2795 7.73543 1.17204 7.5506 1.101C7.36637 1.02753 7.16878 0.993488 6.97058 1.00103C6.77493 0.996863 6.58063 1.03434 6.40057 1.11101C6.221 1.18491 6.05784 1.29365 5.92053 1.43096C5.78322 1.56827 5.67448 1.73148 5.60059 1.91106C5.52392 2.09111 5.48644 2.28536 5.4906 2.48101V5.74102L2.4306 8.74102C2.15449 9.02478 2 9.40515 2 9.80107C2 10.197 2.15449 10.5772 2.4306 10.861L6.06061 14.491C6.20062 14.6322 6.36713 14.7443 6.5506 14.821C6.91641 14.9678 7.3248 14.9678 7.69061 14.821C7.87408 14.7443 8.04059 14.6322 8.1806 14.491L13.1106 9.57097L12.4506 11.771C12.4207 11.9229 12.4207 12.0791 12.4506 12.231C12.4827 12.3831 12.5475 12.5265 12.6406 12.6511C12.7375 12.772 12.8562 12.8737 12.9906 12.951C13.1309 13.021 13.284 13.0618 13.4406 13.071C13.6056 13.0811 13.7705 13.0502 13.9206 12.981C14.0699 12.9135 14.203 12.8145 14.3106 12.691C14.4194 12.5649 14.495 12.4137 14.5306 12.251C14.562 12.1063 14.5654 11.957 14.5406 11.8111ZM6.54059 2.48101C6.52592 2.41515 6.52592 2.34692 6.54059 2.28106C6.56873 2.21688 6.60954 2.15901 6.66058 2.11101C6.71479 2.06818 6.77557 2.03444 6.84058 2.01104C6.90979 1.99617 6.98139 1.99617 7.0506 2.01104C7.17197 2.02042 7.28576 2.07377 7.37061 2.16106C7.44919 2.25294 7.49181 2.37013 7.4906 2.49102V3.75103L6.4906 4.75103L6.54059 2.48101ZM7.54059 13.831C7.49834 13.8816 7.44302 13.9196 7.38062 13.941C7.32077 13.9674 7.25605 13.9811 7.19061 13.9811C7.12518 13.9811 7.06046 13.9674 7.00061 13.941C6.93821 13.9196 6.88283 13.8816 6.84058 13.831L3.21057 10.211C3.16502 10.1643 3.12783 10.1103 3.10059 10.0511C3.07446 9.98938 3.06104 9.923 3.06104 9.85601C3.06104 9.78901 3.07446 9.72275 3.10059 9.66106C3.12783 9.60183 3.16502 9.54768 3.21057 9.50103L7.56061 5.15105V8.00103C7.48441 8.07086 7.42366 8.15593 7.38232 8.25066C7.34099 8.34539 7.31999 8.44772 7.32062 8.55108C7.30842 8.68269 7.33123 8.81515 7.38672 8.93511C7.44221 9.05507 7.5284 9.15826 7.6366 9.23418C7.74479 9.3101 7.87112 9.3561 8.00281 9.36748C8.13449 9.37886 8.26686 9.35523 8.38647 9.299C8.50609 9.24277 8.60871 9.15595 8.68396 9.04729C8.75921 8.93863 8.80443 8.81198 8.815 8.68023C8.82557 8.54847 8.80111 8.41619 8.74414 8.29693C8.68717 8.17766 8.59972 8.07561 8.4906 8.00103V5.17107L12.3406 9.04107L7.54059 13.831Z" fill="#C5C5C5"/>
    </symbol>
  </defs>
</svg>
